HIERARCHY
ROOT joint_Root
{
  OFFSET 0 0 0
  CHANNELS 6 Xposition Yposition Zposition Zrotation Xrotation Yrotation
  JOINT Hips
  {
    OFFSET 0 93.9241 -3
    CHANNELS 6 Xposition Yposition Zposition Zrotation Xrotation Yrotation
    JOINT Spine
    {
      OFFSET 15.7357 0 0
      CHANNELS 6 Xposition Yposition Zposition Zrotation Xrotation Yrotation
      JOINT Chest
      {
        OFFSET 8.98455 -0.406207 0
        CHANNELS 6 Xposition Yposition Zposition Zrotation Xrotation Yrotation
        JOINT Neck
        {
          OFFSET 16.3773 0 0
          CHANNELS 6 Xposition Yposition Zposition Zrotation Xrotation Yrotation
          JOINT Head
          {
            OFFSET 6.45672 0 0
            CHANNELS 6 Xposition Yposition Zposition Zrotation Xrotation Yrotation
            End Site
            {
              OFFSET 0 0 0
            }
          }
        }
        JOINT Shoulder_L
        {
          OFFSET 12.9942 -0.242716 4.98039
          CHANNELS 6 Xposition Yposition Zposition Zrotation Xrotation Yrotation
          JOINT UpperArm_L
          {
            OFFSET 5.34809 0 0
            CHANNELS 6 Xposition Yposition Zposition Zrotation Xrotation Yrotation
            JOINT LowerArm_L
            {
              OFFSET 24.3286 1.87007e-05 0
              CHANNELS 6 Xposition Yposition Zposition Zrotation Xrotation Yrotation
              JOINT Hand_L
              {
                OFFSET 22.2916 0 0
                CHANNELS 6 Xposition Yposition Zposition Zrotation Xrotation Yrotation
                End Site
                {
                  OFFSET 0 0 0
                }
              }
            }
          }
        }
        JOINT Shoulder_R
        {
          OFFSET 12.9945 -0.242716 -4.98039
          CHANNELS 6 Xposition Yposition Zposition Zrotation Xrotation Yrotation
          JOINT UpperArm_R
          {
            OFFSET -5.34813 0 0
            CHANNELS 6 Xposition Yposition Zposition Zrotation Xrotation Yrotation
            JOINT LowerArm_R
            {
              OFFSET -24.3289 0.000322201 0
              CHANNELS 6 Xposition Yposition Zposition Zrotation Xrotation Yrotation
              JOINT Hand_R
              {
                OFFSET -22.2915 -0.000108084 0
                CHANNELS 6 Xposition Yposition Zposition Zrotation Xrotation Yrotation
                End Site
                {
                  OFFSET 0 0 0
                }
              }
            }
          }
        }
      }
    }
    JOINT UpperLeg_L
    {
      OFFSET -2.19248 -6.46944 0
      CHANNELS 6 Xposition Yposition Zposition Zrotation Xrotation Yrotation
      JOINT LowerLeg_L
      {
        OFFSET 39.0811 0 -1.23785e-05
        CHANNELS 6 Xposition Yposition Zposition Zrotation Xrotation Yrotation
        JOINT Foot_L
        {
          OFFSET 40.9854 0 -1.26872e-05
          CHANNELS 6 Xposition Yposition Zposition Zrotation Xrotation Yrotation
          JOINT Toes_L
          {
            OFFSET 11.7543 0 0
            CHANNELS 6 Xposition Yposition Zposition Zrotation Xrotation Yrotation
            End Site
            {
              OFFSET 0 0 0
            }
          }
        }
      }
    }
    JOINT UpperLeg_R
    {
      OFFSET -2.19251 6.46944 0
      CHANNELS 6 Xposition Yposition Zposition Zrotation Xrotation Yrotation
      JOINT LowerLeg_R
      {
        OFFSET -39.0811 -0.00228153 -0.0401928
        CHANNELS 6 Xposition Yposition Zposition Zrotation Xrotation Yrotation
        JOINT Foot_R
        {
          OFFSET -40.9854 0 0
          CHANNELS 6 Xposition Yposition Zposition Zrotation Xrotation Yrotation
          JOINT Toes_R
          {
            OFFSET -11.7543 0 0
            CHANNELS 6 Xposition Yposition Zposition Zrotation Xrotation Yrotation
            End Site
            {
              OFFSET 0 0 0
            }
          }
        }
      }
    }
  }
}
MOTION
Frames:	5
Frame Time:	0.0333333
0 0 0 0 0 -0 0.959454 90.2936 -449.181 87.094 -4.94869 1.62257 15.7357 5.1072e-06 -5.51764e-07 129.124 86.8712 -128.344 8.98455 -0.406207 -4.3199e-07 -2.94051 3.87408 1.66051 16.3773 -1.3905e-06 -6.99897e-07 -1.8675 1.01855 -1.01557 6.45672 -1.25837e-06 -1.02172e-07 12.7673 -2.02074 -1.38811 12.9942 -0.242716 4.98039 -89.8756 -1.84588 -101.145 5.34809 -7.22636e-06 -6.2814e-07 -19.4591 24.5857 -41.3202 24.3286 1.87007e-05 4.90208e-06 -75.8071 -9.53684 -87.6014 22.2916 -9.88446e-07 4.63217e-06 -14.2898 4.84507 10.4561 12.9945 -0.242716 -4.98039 89.9809 -2.07821 -105.526 -5.34813 -1.25947e-06 -3.79883e-06 -23.9883 35.7952 -42.43 -24.3289 0.000322201 -8.65921e-06 -63.3656 -20.2656 -80.15 -22.2915 -0.000108084 -4.47941e-06 -12.362 4.94249 8.51928 -2.19248 -6.46944 -1.22533e-07 -177.457 2.25992 -23.5738 39.0811 -6.73843e-06 -1.23785e-05 -0.609883 0.176582 73.1989 40.9854 -6.48686e-06 -1.26872e-05 8.71774 -12.1342 -37.4451 11.7543 -2.30145e-07 3.05095e-06 0.490902 -0.601515 -22.2359 -2.19251 6.46944 -1.45247e-06 -167.417 8.83501 169.46 -39.0811 -0.00228153 -0.0401928 0.119082 -0.181246 26.5367 -40.9854 7.72618e-06 5.99936e-06 8.83326 -7.86449 -65.8611 -11.7543 -5.6619e-06 -5.58687e-06 -0.00165169 0.0012362 -16.5738 
0 0 0 0 0 -0 1.24666 91.2451 -445.96 89.7333 -5.53666 1.08827 15.7357 5.1072e-06 -5.51765e-07 135.442 86.6449 -135.773 8.98455 -0.406207 -4.3199e-07 -3.04882 4.8105 -0.535979 16.3773 -1.3905e-06 -6.99897e-07 -2.09566 1.02984 -0.811003 6.45672 -1.25837e-06 -1.02172e-07 12.5819 -2.41917 -1.05434 12.9942 -0.242716 4.98039 -89.8262 -2.36338 -100.793 5.34809 -7.22636e-06 -6.2814e-07 -20.3247 22.8234 -43.7733 24.3286 1.87007e-05 4.90208e-06 -77.2797 -12.8712 -87.1218 22.2916 -9.88446e-07 4.63217e-06 -14.2029 4.86707 10.0289 12.9945 -0.242716 -4.98039 89.9523 -2.43589 -106.121 -5.34813 -1.25947e-06 -3.79883e-06 -25.5602 33.7592 -43.1227 -24.3289 0.000322201 -8.65921e-06 -64.5739 -22.8613 -79.5359 -22.2915 -0.000108084 -4.47941e-06 -12.5155 4.95282 8.30693 -2.19248 -6.46944 -1.22533e-07 -179.87 4.05562 -28.3149 39.0811 -6.73843e-06 -1.23785e-05 -0.562461 0.223095 67.6643 40.9854 -6.48686e-06 -1.26872e-05 11.2424 -16.7812 -39.784 11.7543 -2.30145e-07 3.05095e-06 0.433005 -0.523957 -21.5312 -2.19251 6.46944 -1.45247e-06 -170.912 9.70571 173.423 -39.0811 -0.00228153 -0.0401928 0.0684819 -0.116161 22.0186 -40.9854 7.72618e-06 5.99936e-06 8.27842 -6.26925 -66.0645 -11.7543 -5.6619e-06 -5.58687e-06 -0.0036831 0.00266675 -16.5739 
0 0 0 0 0 -0 1.39856 91.9036 -442.87 91.4525 -6.0235 0.33171 15.7357 5.1072e-06 -5.51765e-07 139.76 86.5316 -140.868 8.98455 -0.406207 -4.3199e-07 -3.23842 5.39908 -2.0646 16.3773 -1.3905e-06 -6.99897e-07 -2.58245 1.09776 -0.662911 6.45672 -1.25837e-06 -1.02172e-07 12.2873 -2.68414 -0.699305 12.9942 -0.242716 4.98039 -89.7924 -2.67515 -100.561 5.34809 -7.22636e-06 -6.2814e-07 -21.15 20.9502 -45.6618 24.3286 1.87007e-05 4.90208e-06 -77.2927 -15.6094 -86.5278 22.2916 -9.88446e-07 4.63217e-06 -14.2336 4.87257 9.92146 12.9945 -0.242716 -4.98039 89.9205 -2.73302 -106.666 -5.34813 -1.25947e-06 -3.79883e-06 -26.1836 31.8358 -44.6418 -24.3289 0.000322201 -8.65921e-06 -65.8445 -25.7351 -78.9822 -22.2915 -0.000108084 -4.47941e-06 -12.9265 4.96166 8.12521 -2.19248 -6.46944 -1.22534e-07 179.112 5.54949 -31.3896 39.0811 -6.73843e-06 -1.23785e-05 -0.42697 0.256017 58.1821 40.9854 -6.48686e-06 -1.26872e-05 12.0188 -18.5941 -40.746 11.7543 -2.30145e-07 3.05095e-06 0.462022 -0.562541 -21.8827 -2.19251 6.46944 -1.45247e-06 -173.238 10.9493 177.438 -39.0811 -0.00228153 -0.0401928 0.0321904 -0.0612898 16.6742 -40.9854 7.72618e-06 5.99936e-06 8.48321 -4.93461 -65.6941 -11.7543 -5.6619e-06 -5.58687e-06 0.0119357 -0.012366 -16.6695 
0 0 0 0 0 -0 1.37025 92.1604 -439.795 91.9365 -6.60267 -0.143333 15.7357 5.1072e-06 -5.51765e-07 141.947 86.3635 -143.337 8.98455 -0.406207 -4.3199e-07 -3.21823 5.85756 -2.61668 16.3773 -1.3905e-06 -6.99897e-07 -3.17098 1.15265 -0.588653 6.45672 -1.25837e-06 -1.02172e-07 11.7882 -2.85268 -0.488939 12.9942 -0.242716 4.98039 -89.7922 -2.62704 -100.475 5.34809 -7.22636e-06 -6.2814e-07 -21.8715 18.9825 -47.2874 24.3286 1.87007e-05 4.90208e-06 -77.0248 -18.3108 -85.8595 22.2916 -9.88446e-07 4.63217e-06 -14.5513 4.86341 10.1001 12.9945 -0.242716 -4.98039 89.8861 -3.01477 -107.164 -5.34813 -1.25947e-06 -3.79883e-06 -26.5172 29.8829 -46.2986 -24.3289 0.000322201 -8.65921e-06 -67.5005 -28.5419 -78.8057 -22.2915 -0.000108084 -4.47941e-06 -12.9971 4.97421 7.86311 -2.19248 -6.46944 -1.22533e-07 179.333 5.64394 -31.9831 39.0811 -6.73843e-06 -1.23785e-05 -0.24581 0.232232 45.2759 40.9854 -6.48686e-06 -1.26872e-05 10.3823 -16.8757 -43.4616 11.7543 -2.30145e-07 3.05095e-06 0.433045 -0.524001 -21.5315 -2.19251 6.46944 -1.45247e-06 -174.074 10.6698 -179.645 -39.0811 -0.00228153 -0.0401928 0.0196332 -0.03608 13.7976 -40.9854 7.72618e-06 5.99936e-06 8.30973 -5.57605 -64.7672 -11.7543 -5.6619e-06 -5.58687e-06 -0.398382 -0.612818 -17.5922 
0 0 0 0 0 -0 1.23559 91.8848 -436.605 91.3579 -7.19933 -0.394276 15.7357 5.1072e-06 -5.51765e-07 142.58 86.1944 -143.843 8.98455 -0.406207 -4.3199e-07 -3.08005 6.16163 -2.3624 16.3773 -1.3905e-06 -6.99897e-07 -3.83014 1.25185 -0.563392 6.45672 -1.25837e-06 -1.02172e-07 11.2155 -2.91025 -0.250696 12.9942 -0.242716 4.98039 -89.7929 -2.63607 -100.507 5.34809 -7.22636e-06 -6.2814e-07 -22.9637 16.8794 -48.6149 24.3286 1.87007e-05 4.90208e-06 -76.5031 -20.901 -85.1058 22.2916 -9.88446e-07 4.63217e-06 -14.5654 4.85786 10.2084 12.9945 -0.242716 -4.98039 89.8352 -3.33206 -107.833 -5.34813 -1.25947e-06 -3.79883e-06 -27.6368 27.6047 -47.4016 -24.3289 0.000322201 -8.65921e-06 -68.0221 -30.8824 -78.2961 -22.2915 -0.000108084 -4.47941e-06 -13.2083 4.97791 7.78631 -2.19248 -6.46944 -1.22534e-07 179.719 3.5389 -30.0019 39.0811 -6.73843e-06 -1.23785e-05 -0.110166 0.182849 28.9081 40.9854 -6.48686e-06 -1.26872e-05 8.66827 -13.2031 -45.899 11.7543 -2.30145e-07 3.05095e-06 0.427198 -0.516294 -21.4611 -2.19251 6.46944 -1.45247e-06 -173.704 9.23905 -176.991 -39.0811 -0.00228153 -0.0401928 0.0151682 -0.0251247 12.507 -40.9854 7.72618e-06 5.99936e-06 7.85009 -7.2087 -65.263 -11.7543 -5.6619e-06 -5.58687e-06 -0.55653 -0.897288 -18.257 
